<?xml version="1.0" encoding="UTF-8"?>
<svg id="visualisation" width="1000" height="500" xmlns="http://www.w3.org/2000/svg"><text x="70" y="40" style="fill: black;">BORGATTI_S</text><style type="text/css"> .axis path, .axis line { fill: none; stroke: #777; shape-rendering: crispEdges; } .axis text { font-family: 'Arial'; font-size: 13px; } .tick { stroke-dasharray: 1, 2; } .bar { fill: FireBrick; } </style><g class="x axis" transform="translate(0,230)"><g class="tick" transform="translate(50,0)" style="opacity: 1;"><line y2="5" x2="0"></line><text dy=".71em" y="8" x="0" style="text-anchor: middle;">1,970</text></g><g class="tick" transform="translate(117.94871794871794,0)" style="opacity: 1;"><line y2="5" x2="0"></line><text dy=".71em" y="8" x="0" style="text-anchor: middle;">1,975</text></g><g class="tick" transform="translate(185.89743589743588,0)" style="opacity: 1;"><line y2="5" x2="0"></line><text dy=".71em" y="8" x="0" style="text-anchor: middle;">1,980</text></g><g class="tick" transform="translate(253.84615384615387,0)" style="opacity: 1;"><line y2="5" x2="0"></line><text dy=".71em" y="8" x="0" style="text-anchor: middle;">1,985</text></g><g class="tick" transform="translate(321.79487179487177,0)" style="opacity: 1;"><line y2="5" x2="0"></line><text dy=".71em" y="8" x="0" style="text-anchor: middle;">1,990</text></g><g class="tick" transform="translate(389.7435897435898,0)" style="opacity: 1;"><line y2="5" x2="0"></line><text dy=".71em" y="8" x="0" style="text-anchor: middle;">1,995</text></g><g class="tick" transform="translate(457.69230769230774,0)" style="opacity: 1;"><line y2="5" x2="0"></line><text dy=".71em" y="8" x="0" style="text-anchor: middle;">2,000</text></g><g class="tick" transform="translate(525.6410256410256,0)" style="opacity: 1;"><line y2="5" x2="0"></line><text dy=".71em" y="8" x="0" style="text-anchor: middle;">2,005</text></g><path class="domain" d="M50,5V0H580V5"></path></g><g class="y axis" transform="translate(50,0)"><g class="tick" transform="translate(0,230)" style="opacity: 1;"><line x2="-5" y2="0"></line><text dy=".32em" x="-8" y="0" style="text-anchor: end;">0</text></g><g class="tick" transform="translate(0,205.2941176470588)" style="opacity: 1;"><line x2="-5" y2="0"></line><text dy=".32em" x="-8" y="0" style="text-anchor: end;">2</text></g><g class="tick" transform="translate(0,180.58823529411765)" style="opacity: 1;"><line x2="-5" y2="0"></line><text dy=".32em" x="-8" y="0" style="text-anchor: end;">4</text></g><g class="tick" transform="translate(0,155.88235294117646)" style="opacity: 1;"><line x2="-5" y2="0"></line><text dy=".32em" x="-8" y="0" style="text-anchor: end;">6</text></g><g class="tick" transform="translate(0,131.1764705882353)" style="opacity: 1;"><line x2="-5" y2="0"></line><text dy=".32em" x="-8" y="0" style="text-anchor: end;">8</text></g><g class="tick" transform="translate(0,106.47058823529412)" style="opacity: 1;"><line x2="-5" y2="0"></line><text dy=".32em" x="-8" y="0" style="text-anchor: end;">10</text></g><g class="tick" transform="translate(0,81.76470588235294)" style="opacity: 1;"><line x2="-5" y2="0"></line><text dy=".32em" x="-8" y="0" style="text-anchor: end;">12</text></g><g class="tick" transform="translate(0,57.058823529411775)" style="opacity: 1;"><line x2="-5" y2="0"></line><text dy=".32em" x="-8" y="0" style="text-anchor: end;">14</text></g><g class="tick" transform="translate(0,32.352941176470594)" style="opacity: 1;"><line x2="-5" y2="0"></line><text dy=".32em" x="-8" y="0" style="text-anchor: end;">16</text></g><path class="domain" d="M-5,20H0V230H-5"></path></g><rect x="50" y="230" width="244.61538461538458" height="0" fill="steelblue"></rect><rect x="294.6153846153846" y="223.8235294117647" width="13.589743589743591" height="6.176470588235304" fill="steelblue"></rect><rect x="308.2051282051282" y="212.1574117647059" width="13.589743589743591" height="17.8425882352941" fill="steelblue"></rect><rect x="321.79487179487177" y="188.82394117647058" width="13.589743589743648" height="41.17605882352942" fill="steelblue"></rect><rect x="335.3846153846154" y="177.1565882352941" width="13.589743589743591" height="52.843411764705905" fill="steelblue"></rect><rect x="348.974358974359" y="164.80364705882351" width="13.589743589743534" height="65.19635294117649" fill="steelblue"></rect><rect x="362.56410256410254" y="152.45070588235296" width="13.589743589743648" height="77.54929411764704" fill="steelblue"></rect><rect x="376.1538461538462" y="133.92129411764705" width="27.179487179487126" height="96.07870588235295" fill="steelblue"></rect><rect x="403.3333333333333" y="127.74482352941178" width="13.589743589743591" height="102.25517647058822" fill="steelblue"></rect><rect x="416.9230769230769" y="116.07870588235293" width="13.589743589743591" height="113.92129411764707" fill="steelblue"></rect><rect x="430.5128205128205" y="111.44635294117646" width="13.589743589743591" height="118.55364705882354" fill="steelblue"></rect><rect x="444.1025641025641" y="92.91694117647059" width="27.179487179487182" height="137.08305882352943" fill="steelblue"></rect><rect x="471.28205128205127" y="82.79370588235292" width="13.589743589743534" height="147.20629411764708" fill="steelblue"></rect><rect x="484.8717948717948" y="77.3040588235294" width="13.589743589743648" height="152.6959411764706" fill="steelblue"></rect><rect x="498.46153846153845" y="55.68641176470589" width="27.179487179487182" height="174.3135882352941" fill="steelblue"></rect><rect x="525.6410256410256" y="43.3334705882353" width="13.589743589743534" height="186.6665294117647" fill="steelblue"></rect><rect x="539.2307692307692" y="31.666117647058844" width="13.589743589743648" height="198.33388235294115" fill="steelblue"></rect><rect x="552.8205128205128" y="20.98329411764706" width="27.179487179487182" height="209.01670588235294" fill="steelblue"></rect></svg>
