<?xml version="1.0" encoding="UTF-8"?>
<svg id="visualisation" width="1000" height="500" xmlns="http://www.w3.org/2000/svg"><text x="70" y="40" style="fill: black;">DOREIAN_P</text><style type="text/css"> .axis path, .axis line { fill: none; stroke: #777; shape-rendering: crispEdges; } .axis text { font-family: 'Arial'; font-size: 13px; } .tick { stroke-dasharray: 1, 2; } .bar { fill: FireBrick; } </style><g class="x axis" transform="translate(0,230)"><g class="tick" transform="translate(50,0)" style="opacity: 1;"><line y2="5" x2="0"></line><text dy=".71em" y="8" x="0" style="text-anchor: middle;">1,970</text></g><g class="tick" transform="translate(117.94871794871794,0)" style="opacity: 1;"><line y2="5" x2="0"></line><text dy=".71em" y="8" x="0" style="text-anchor: middle;">1,975</text></g><g class="tick" transform="translate(185.89743589743588,0)" style="opacity: 1;"><line y2="5" x2="0"></line><text dy=".71em" y="8" x="0" style="text-anchor: middle;">1,980</text></g><g class="tick" transform="translate(253.84615384615387,0)" style="opacity: 1;"><line y2="5" x2="0"></line><text dy=".71em" y="8" x="0" style="text-anchor: middle;">1,985</text></g><g class="tick" transform="translate(321.79487179487177,0)" style="opacity: 1;"><line y2="5" x2="0"></line><text dy=".71em" y="8" x="0" style="text-anchor: middle;">1,990</text></g><g class="tick" transform="translate(389.7435897435898,0)" style="opacity: 1;"><line y2="5" x2="0"></line><text dy=".71em" y="8" x="0" style="text-anchor: middle;">1,995</text></g><g class="tick" transform="translate(457.69230769230774,0)" style="opacity: 1;"><line y2="5" x2="0"></line><text dy=".71em" y="8" x="0" style="text-anchor: middle;">2,000</text></g><g class="tick" transform="translate(525.6410256410256,0)" style="opacity: 1;"><line y2="5" x2="0"></line><text dy=".71em" y="8" x="0" style="text-anchor: middle;">2,005</text></g><path class="domain" d="M50,5V0H580V5"></path></g><g class="y axis" transform="translate(50,0)"><g class="tick" transform="translate(0,230)" style="opacity: 1;"><line x2="-5" y2="0"></line><text dy=".32em" x="-8" y="0" style="text-anchor: end;">0</text></g><g class="tick" transform="translate(0,205.2941176470588)" style="opacity: 1;"><line x2="-5" y2="0"></line><text dy=".32em" x="-8" y="0" style="text-anchor: end;">2</text></g><g class="tick" transform="translate(0,180.58823529411765)" style="opacity: 1;"><line x2="-5" y2="0"></line><text dy=".32em" x="-8" y="0" style="text-anchor: end;">4</text></g><g class="tick" transform="translate(0,155.88235294117646)" style="opacity: 1;"><line x2="-5" y2="0"></line><text dy=".32em" x="-8" y="0" style="text-anchor: end;">6</text></g><g class="tick" transform="translate(0,131.1764705882353)" style="opacity: 1;"><line x2="-5" y2="0"></line><text dy=".32em" x="-8" y="0" style="text-anchor: end;">8</text></g><g class="tick" transform="translate(0,106.47058823529412)" style="opacity: 1;"><line x2="-5" y2="0"></line><text dy=".32em" x="-8" y="0" style="text-anchor: end;">10</text></g><g class="tick" transform="translate(0,81.76470588235294)" style="opacity: 1;"><line x2="-5" y2="0"></line><text dy=".32em" x="-8" y="0" style="text-anchor: end;">12</text></g><g class="tick" transform="translate(0,57.058823529411775)" style="opacity: 1;"><line x2="-5" y2="0"></line><text dy=".32em" x="-8" y="0" style="text-anchor: end;">14</text></g><g class="tick" transform="translate(0,32.352941176470594)" style="opacity: 1;"><line x2="-5" y2="0"></line><text dy=".32em" x="-8" y="0" style="text-anchor: end;">16</text></g><path class="domain" d="M-5,20H0V230H-5"></path></g><rect x="50" y="230" width="190.25641025641025" height="0" fill="steelblue"></rect><rect x="240.25641025641025" y="223.8235294117647" width="13.58974358974362" height="6.176470588235304" fill="steelblue"></rect><rect x="253.84615384615387" y="217.64705882352942" width="54.35897435897431" height="12.35294117647058" fill="steelblue"></rect><rect x="308.2051282051282" y="211.4705882352941" width="13.589743589743591" height="18.529411764705912" fill="steelblue"></rect><rect x="321.79487179487177" y="199.8044705882353" width="27.17948717948724" height="30.19552941176471" fill="steelblue"></rect><rect x="348.974358974359" y="182.6474705882353" width="27.179487179487182" height="47.35252941176469" fill="steelblue"></rect><rect x="376.1538461538462" y="164.80364705882351" width="13.589743589743591" height="65.19635294117649" fill="steelblue"></rect><rect x="389.7435897435898" y="159.314" width="13.589743589743534" height="70.686" fill="steelblue"></rect><rect x="403.3333333333333" y="142.32870588235295" width="54.35897435897442" height="87.67129411764705" fill="steelblue"></rect><rect x="457.69230769230774" y="136.83782352941176" width="13.589743589743534" height="93.16217647058824" fill="steelblue"></rect><rect x="471.28205128205127" y="130.6613529411765" width="27.179487179487182" height="99.33864705882351" fill="steelblue"></rect><rect x="498.46153846153845" y="124.48488235294116" width="13.589743589743648" height="105.51511764705884" fill="steelblue"></rect><rect x="512.0512820512821" y="113.50435294117646" width="40.76923076923072" height="116.49564705882354" fill="steelblue"></rect><rect x="552.8205128205128" y="113.00035294117649" width="27.179487179487182" height="116.99964705882351" fill="steelblue"></rect></svg>