<?xml version="1.0" encoding="UTF-8"?>
<svg id="visualisation" width="1000" height="500" xmlns="http://www.w3.org/2000/svg"><text x="70" y="40" style="fill: black;">EVERETT_M</text><style type="text/css"> .axis path, .axis line { fill: none; stroke: #777; shape-rendering: crispEdges; } .axis text { font-family: 'Arial'; font-size: 13px; } .tick { stroke-dasharray: 1, 2; } .bar { fill: FireBrick; } </style><g class="x axis" transform="translate(0,230)"><g class="tick" transform="translate(50,0)" style="opacity: 1;"><line y2="5" x2="0"></line><text dy=".71em" y="8" x="0" style="text-anchor: middle;">1,970</text></g><g class="tick" transform="translate(117.94871794871794,0)" style="opacity: 1;"><line y2="5" x2="0"></line><text dy=".71em" y="8" x="0" style="text-anchor: middle;">1,975</text></g><g class="tick" transform="translate(185.89743589743588,0)" style="opacity: 1;"><line y2="5" x2="0"></line><text dy=".71em" y="8" x="0" style="text-anchor: middle;">1,980</text></g><g class="tick" transform="translate(253.84615384615387,0)" style="opacity: 1;"><line y2="5" x2="0"></line><text dy=".71em" y="8" x="0" style="text-anchor: middle;">1,985</text></g><g class="tick" transform="translate(321.79487179487177,0)" style="opacity: 1;"><line y2="5" x2="0"></line><text dy=".71em" y="8" x="0" style="text-anchor: middle;">1,990</text></g><g class="tick" transform="translate(389.7435897435898,0)" style="opacity: 1;"><line y2="5" x2="0"></line><text dy=".71em" y="8" x="0" style="text-anchor: middle;">1,995</text></g><g class="tick" transform="translate(457.69230769230774,0)" style="opacity: 1;"><line y2="5" x2="0"></line><text dy=".71em" y="8" x="0" style="text-anchor: middle;">2,000</text></g><g class="tick" transform="translate(525.6410256410256,0)" style="opacity: 1;"><line y2="5" x2="0"></line><text dy=".71em" y="8" x="0" style="text-anchor: middle;">2,005</text></g><path class="domain" d="M50,5V0H580V5"></path></g><g class="y axis" transform="translate(50,0)"><g class="tick" transform="translate(0,230)" style="opacity: 1;"><line x2="-5" y2="0"></line><text dy=".32em" x="-8" y="0" style="text-anchor: end;">0</text></g><g class="tick" transform="translate(0,205.2941176470588)" style="opacity: 1;"><line x2="-5" y2="0"></line><text dy=".32em" x="-8" y="0" style="text-anchor: end;">2</text></g><g class="tick" transform="translate(0,180.58823529411765)" style="opacity: 1;"><line x2="-5" y2="0"></line><text dy=".32em" x="-8" y="0" style="text-anchor: end;">4</text></g><g class="tick" transform="translate(0,155.88235294117646)" style="opacity: 1;"><line x2="-5" y2="0"></line><text dy=".32em" x="-8" y="0" style="text-anchor: end;">6</text></g><g class="tick" transform="translate(0,131.1764705882353)" style="opacity: 1;"><line x2="-5" y2="0"></line><text dy=".32em" x="-8" y="0" style="text-anchor: end;">8</text></g><g class="tick" transform="translate(0,106.47058823529412)" style="opacity: 1;"><line x2="-5" y2="0"></line><text dy=".32em" x="-8" y="0" style="text-anchor: end;">10</text></g><g class="tick" transform="translate(0,81.76470588235294)" style="opacity: 1;"><line x2="-5" y2="0"></line><text dy=".32em" x="-8" y="0" style="text-anchor: end;">12</text></g><g class="tick" transform="translate(0,57.058823529411775)" style="opacity: 1;"><line x2="-5" y2="0"></line><text dy=".32em" x="-8" y="0" style="text-anchor: end;">14</text></g><g class="tick" transform="translate(0,32.352941176470594)" style="opacity: 1;"><line x2="-5" y2="0"></line><text dy=".32em" x="-8" y="0" style="text-anchor: end;">16</text></g><path class="domain" d="M-5,20H0V230H-5"></path></g><rect x="50" y="230" width="244.61538461538458" height="0" fill="steelblue"></rect><rect x="294.6153846153846" y="217.64705882352942" width="13.589743589743591" height="12.35294117647058" fill="steelblue"></rect><rect x="308.2051282051282" y="205.98094117647057" width="13.589743589743591" height="24.019058823529434" fill="steelblue"></rect><rect x="321.79487179487177" y="182.6474705882353" width="13.589743589743648" height="47.35252941176469" fill="steelblue"></rect><rect x="335.3846153846154" y="176.471" width="13.589743589743591" height="53.528999999999996" fill="steelblue"></rect><rect x="348.974358974359" y="164.1180588235294" width="13.589743589743534" height="65.8819411764706" fill="steelblue"></rect><rect x="362.56410256410254" y="151.76511764705882" width="13.589743589743648" height="78.23488235294118" fill="steelblue"></rect><rect x="376.1538461538462" y="139.41217647058824" width="27.179487179487126" height="90.58782352941176" fill="steelblue"></rect><rect x="403.3333333333333" y="133.23570588235293" width="13.589743589743591" height="96.76429411764707" fill="steelblue"></rect><rect x="416.9230769230769" y="127.05923529411766" width="27.179487179487182" height="102.94076470588234" fill="steelblue"></rect><rect x="444.1025641025641" y="102.35335294117648" width="54.358974358974365" height="127.64664705882352" fill="steelblue"></rect><rect x="498.46153846153845" y="97.72099999999999" width="13.589743589743648" height="132.279" fill="steelblue"></rect><rect x="512.0512820512821" y="92.23011764705883" width="13.589743589743534" height="137.76988235294118" fill="steelblue"></rect><rect x="525.6410256410256" y="86.05364705882354" width="13.589743589743534" height="143.94635294117646" fill="steelblue"></rect><rect x="539.2307692307692" y="79.87717647058825" width="13.589743589743648" height="150.12282352941173" fill="steelblue"></rect><rect x="552.8205128205128" y="74.3875294117647" width="27.179487179487182" height="155.61247058823528" fill="steelblue"></rect></svg>