<?xml version="1.0" encoding="UTF-8"?>
<svg width="900" height="250" xmlns="http://www.w3.org/2000/svg"><g transform="translate(60,10)"><style type="text/css"> .axis path, .axis line { fill: none; stroke: #777; shape-rendering: crispEdges; } .axis text { font-family: 'Arial'; font-size: 13px; } .tick { stroke-dasharray: 1, 2; }</style><rect class="bar" x="0" y="187" width="17.82608695652174" height="33" fill="orange"></rect><rect class="bar" x="160.43478260869566" y="206.55555555555554" width="17.82608695652172" height="13.444444444444457" fill="orange"></rect><rect class="bar" x="231.7391304347826" y="187" width="17.826086956521777" height="33" fill="orange"></rect><rect class="bar" x="267.39130434782606" y="206.55555555555554" width="17.82608695652175" height="13.444444444444457" fill="orange"></rect><rect class="bar" x="285.2173913043478" y="199.22222222222223" width="17.82608695652175" height="20.77777777777777" fill="orange"></rect><rect class="bar" x="303.04347826086956" y="205.33333333333334" width="17.82608695652175" height="14.666666666666657" fill="orange"></rect><rect class="bar" x="374.3478260869565" y="199.22222222222223" width="17.82608695652175" height="20.77777777777777" fill="orange"></rect><rect class="bar" x="427.82608695652175" y="206.55555555555554" width="17.826086956521692" height="13.444444444444457" fill="orange"></rect><rect class="bar" x="463.4782608695652" y="198" width="17.826086956521806" height="22" fill="orange"></rect><rect class="bar" x="481.304347826087" y="200.44444444444443" width="17.82608695652175" height="19.55555555555557" fill="orange"></rect><rect class="bar" x="499.13043478260875" y="155.2222222222222" width="17.82608695652175" height="64.7777777777778" fill="orange"></rect><rect class="bar" x="516.9565217391305" y="151.55555555555554" width="17.826086956521635" height="68.44444444444446" fill="orange"></rect><rect class="bar" x="534.7826086956521" y="157.66666666666666" width="17.82608695652175" height="62.33333333333334" fill="orange"></rect><rect class="bar" x="552.6086956521739" y="183.33333333333334" width="17.82608695652175" height="36.66666666666666" fill="orange"></rect><rect class="bar" x="570.4347826086956" y="199.22222222222223" width="17.82608695652175" height="20.77777777777777" fill="orange"></rect><rect class="bar" x="588.2608695652174" y="133.22222222222223" width="17.82608695652175" height="86.77777777777777" fill="orange"></rect><rect class="bar" x="606.0869565217391" y="127.1111111111111" width="17.82608695652175" height="92.8888888888889" fill="orange"></rect><rect class="bar" x="623.9130434782609" y="155.2222222222222" width="17.82608695652175" height="64.7777777777778" fill="orange"></rect><rect class="bar" x="641.7391304347826" y="206.55555555555554" width="17.82608695652175" height="13.444444444444457" fill="orange"></rect><rect class="bar" x="659.5652173913044" y="191.88888888888889" width="17.82608695652175" height="28.111111111111114" fill="orange"></rect><rect class="bar" x="677.3913043478261" y="154" width="17.82608695652175" height="66" fill="orange"></rect><rect class="bar" x="695.2173913043479" y="204.11111111111111" width="17.826086956521635" height="15.888888888888886" fill="orange"></rect><rect class="bar" x="713.0434782608695" y="7.333333333333332" width="17.82608695652175" height="212.66666666666666" fill="orange"></rect><rect class="bar" x="730.8695652173913" y="189.44444444444446" width="17.82608695652175" height="30.555555555555543" fill="orange"></rect><rect class="bar" x="748.695652173913" y="195.55555555555554" width="17.826086956521863" height="24.444444444444457" fill="orange"></rect><rect class="bar" x="784.3478260869565" y="201.66666666666666" width="17.82608695652175" height="18.333333333333343" fill="orange"></rect><rect class="bar" x="802.1739130434783" y="189.44444444444446" width="17.82608695652175" height="30.555555555555543" fill="orange"></rect><text x="70" y="40" style="fill: black; font-style: normal; font-variant: normal; font-weight: normal; font-stretch: normal; font-size: 14px; line-height: normal; font-family: sans-serif;">Workers</text><g class="x axis" transform="translate(0,220)"><g class="tick" transform="translate(71.30434782608695,0)" style="opacity: 1;"><line y2="6" x2="0"></line><text dy=".71em" y="9" x="0" style="text-anchor: middle;">5</text></g><g class="tick" transform="translate(160.43478260869566,0)" style="opacity: 1;"><line y2="6" x2="0"></line><text dy=".71em" y="9" x="0" style="text-anchor: middle;">10</text></g><g class="tick" transform="translate(249.56521739130437,0)" style="opacity: 1;"><line y2="6" x2="0"></line><text dy=".71em" y="9" x="0" style="text-anchor: middle;">15</text></g><g class="tick" transform="translate(338.69565217391306,0)" style="opacity: 1;"><line y2="6" x2="0"></line><text dy=".71em" y="9" x="0" style="text-anchor: middle;">20</text></g><g class="tick" transform="translate(427.82608695652175,0)" style="opacity: 1;"><line y2="6" x2="0"></line><text dy=".71em" y="9" x="0" style="text-anchor: middle;">25</text></g><g class="tick" transform="translate(516.9565217391305,0)" style="opacity: 1;"><line y2="6" x2="0"></line><text dy=".71em" y="9" x="0" style="text-anchor: middle;">30</text></g><g class="tick" transform="translate(606.0869565217391,0)" style="opacity: 1;"><line y2="6" x2="0"></line><text dy=".71em" y="9" x="0" style="text-anchor: middle;">35</text></g><g class="tick" transform="translate(695.2173913043479,0)" style="opacity: 1;"><line y2="6" x2="0"></line><text dy=".71em" y="9" x="0" style="text-anchor: middle;">40</text></g><g class="tick" transform="translate(784.3478260869565,0)" style="opacity: 1;"><line y2="6" x2="0"></line><text dy=".71em" y="9" x="0" style="text-anchor: middle;">45</text></g><path class="domain" d="M0,6V0H820V6"></path></g><g class="y axis"><g class="tick" transform="translate(0,220)" style="opacity: 1;"><line x2="-6" y2="0"></line><text dy=".32em" x="-9" y="0" style="text-anchor: end;">0</text></g><g class="tick" transform="translate(0,195.55555555555554)" style="opacity: 1;"><line x2="-6" y2="0"></line><text dy=".32em" x="-9" y="0" style="text-anchor: end;">20</text></g><g class="tick" transform="translate(0,171.11111111111111)" style="opacity: 1;"><line x2="-6" y2="0"></line><text dy=".32em" x="-9" y="0" style="text-anchor: end;">40</text></g><g class="tick" transform="translate(0,146.66666666666669)" style="opacity: 1;"><line x2="-6" y2="0"></line><text dy=".32em" x="-9" y="0" style="text-anchor: end;">60</text></g><g class="tick" transform="translate(0,122.22222222222223)" style="opacity: 1;"><line x2="-6" y2="0"></line><text dy=".32em" x="-9" y="0" style="text-anchor: end;">80</text></g><g class="tick" transform="translate(0,97.77777777777777)" style="opacity: 1;"><line x2="-6" y2="0"></line><text dy=".32em" x="-9" y="0" style="text-anchor: end;">100</text></g><g class="tick" transform="translate(0,73.33333333333334)" style="opacity: 1;"><line x2="-6" y2="0"></line><text dy=".32em" x="-9" y="0" style="text-anchor: end;">120</text></g><g class="tick" transform="translate(0,48.888888888888886)" style="opacity: 1;"><line x2="-6" y2="0"></line><text dy=".32em" x="-9" y="0" style="text-anchor: end;">140</text></g><g class="tick" transform="translate(0,24.444444444444457)" style="opacity: 1;"><line x2="-6" y2="0"></line><text dy=".32em" x="-9" y="0" style="text-anchor: end;">160</text></g><g class="tick" transform="translate(0,0)" style="opacity: 1;"><line x2="-6" y2="0"></line><text dy=".32em" x="-9" y="0" style="text-anchor: end;">180</text></g><path class="domain" d="M-6,0H0V220H-6"></path></g></g></svg>
